<?xml version="1.0" encoding="UTF-8" standalone="no"?>
<svg
   xmlns:dc="http://purl.org/dc/elements/1.1/"
   xmlns:cc="http://creativecommons.org/ns#"
   xmlns:rdf="http://www.w3.org/1999/02/22-rdf-syntax-ns#"
   xmlns:svg="http://www.w3.org/2000/svg"
   xmlns="http://www.w3.org/2000/svg"
   xmlns:sodipodi="http://sodipodi.sourceforge.net/DTD/sodipodi-0.dtd"
   xmlns:inkscape="http://www.inkscape.org/namespaces/inkscape"
   width="2080"
   height="2080"
   version="1.1"
   viewBox="0 0 2080 2080"
   id="svg21"
   sodipodi:docname="logo.svg"
   inkscape:version="1.0.1 (3bc2e813f5, 2020-09-07)">
  <metadata
     id="metadata25">
    <rdf:RDF>
      <cc:Work
         rdf:about="">
        <dc:format>image/svg+xml</dc:format>
        <dc:type
           rdf:resource="http://purl.org/dc/dcmitype/StillImage" />
        <dc:title></dc:title>
      </cc:Work>
    </rdf:RDF>
  </metadata>
  <sodipodi:namedview
     pagecolor="#ffffff"
     bordercolor="#666666"
     borderopacity="1"
     objecttolerance="10"
     gridtolerance="10"
     guidetolerance="10"
     inkscape:pageopacity="0"
     inkscape:pageshadow="2"
     inkscape:window-width="2119"
     inkscape:window-height="1368"
     id="namedview23"
     showgrid="false"
     lock-margins="true"
     fit-margin-top="16"
     fit-margin-left="16"
     fit-margin-right="16"
     fit-margin-bottom="16"
     inkscape:zoom="0.34802912"
     inkscape:cx="781.04806"
     inkscape:cy="855.93515"
     inkscape:window-x="0"
     inkscape:window-y="0"
     inkscape:window-maximized="0"
     inkscape:current-layer="svg21" />
  <defs
     id="defs13">
    <radialGradient
       id="a"
       cx="1024"
       cy="1024"
       r="1024"
       gradientUnits="userSpaceOnUse"
       gradientTransform="translate(16,16)">
      <stop
         stop-opacity="0"
         offset="0"
         id="stop2" />
      <stop
         stop-color="#FF2F1D"
         stop-opacity="0"
         offset=".75"
         id="stop4" />
      <stop
         stop-color="#FF2F1D"
         stop-opacity=".6"
         offset=".91525382"
         id="stop6" />
      <stop
         stop-color="#FF2F1D"
         stop-opacity=".74901961"
         offset=".98000002"
         id="stop8" />
      <stop
         stop-color="#FF2F1D"
         stop-opacity=".25"
         offset="1"
         id="stop10" />
    </radialGradient>
    <radialGradient
       id="a-5"
       cx="1024"
       cy="1024"
       r="1024"
       gradientUnits="userSpaceOnUse"
       gradientTransform="translate(0,-547.02842)">
      <stop
         stop-opacity="0"
         offset="0"
         id="stop2-6" />
      <stop
         stop-color="#FF2F1D"
         stop-opacity="0"
         offset=".75"
         id="stop4-1" />
      <stop
         stop-color="#FF2F1D"
         stop-opacity=".6"
         offset=".91525382"
         id="stop6-6" />
      <stop
         stop-color="#FF2F1D"
         stop-opacity=".74901961"
         offset=".98000002"
         id="stop8-7" />
      <stop
         stop-color="#FF2F1D"
         stop-opacity=".25"
         offset="1"
         id="stop10-7" />
    </radialGradient>
  </defs>
  <path
     d="M 2048,1040 A 1008,1008 0 0 1 1040,2048 1008,1008 0 0 1 32,1040 1008,1008 0 0 1 1040,32 1008,1008 0 0 1 2048,1040 Z"
     fill="url(#a)"
     fill-rule="evenodd"
     stroke-width="1.00589"
     id="path15-2"
     style="fill:#202020;fill-opacity:1" />
  <path
     d="M 2064,1040 A 1024,1024 0 0 1 1040,2064 1024,1024 0 0 1 16,1040 1024,1024 0 0 1 1040,16 1024,1024 0 0 1 2064,1040 Z"
     fill="url(#a)"
     fill-rule="evenodd"
     stroke-width="1.02185"
     id="path15"
     style="fill:url(#a)" />
  <g
     transform="matrix(0.97076702,0,0,0.97076702,84.775971,18.253063)"
     id="g19">
    <path
       d="m 5.0101,2096.7 c 10.699,-21.279 11.716,-22.526 46.273,-56.77 43.317,-42.923 76.539,-73.244 117.95,-107.64 128.04,-106.37 264.24,-189.22 416.39,-253.29 85.754,-36.108 157.08,-60.382 310.12,-105.54 89.69,-26.467 134.14,-40.589 189.38,-60.174 175.22,-62.121 303.28,-127.53 388.5,-198.43 26.726,-22.234 56.597,-54.505 71.709,-77.471 23.079,-35.074 31.746,-60.486 37.431,-109.75 2.3217,-20.119 2.3198,-58.939 0,-76.655 -5.7374,-43.746 -21.237,-81.358 -43.545,-105.67 -6.6468,-7.2434 -15.891,-15.365 -16.638,-14.618 -0.2564,0.2564 2.0918,4.7009 5.2183,9.8766 16.118,26.684 29.04,63.338 33.811,95.91 2.2836,15.59 2.9831,39.384 1.6169,55 -8.3211,95.111 -70.376,182.22 -183.6,257.73 -80.341,53.58 -186.33,101.44 -315,142.22 -27.748,8.7962 -52.995,16.22 -109,32.049 -120.89,34.168 -242.79,77.344 -348,123.25 -73.825,32.215 -151.02,70.886 -215,107.7 -117.63,67.691 -220.46,143.63 -305.39,225.54 l -14.517,14 14.399,-19 c 36.652,-48.364 79.572,-102.19 129.83,-162.81 11.767,-14.193 21.233,-25.966 21.034,-26.163 -0.1984,-0.1961 -12.636,7.0187 -27.639,16.033 l -27.279,16.39 2.6934,-4.7269 c 19.076,-33.478 40.493,-62.549 73.472,-99.727 16.886,-19.036 66.904,-69.158 90.393,-90.582 41.454,-37.809 82.361,-72.41 124,-104.89 9.35,-7.2922 17.171,-13.72 17.38,-14.285 0.2088,-0.5643 -0.1398,-0.7049 -0.7748,-0.3125 -0.6349,0.3924 -13.757,5.8319 -29.161,12.088 -32.592,13.236 -32.116,13.498 -11.931,-6.5577 41.606,-41.342 132.27,-104.53 257.4,-179.4 20.397,-12.204 43.29,-25.758 50.874,-30.12 10.308,-5.9293 13.338,-8.1011 12,-8.6029 -0.9841,-0.3691 -14.614,-1.6234 -30.289,-2.7872 -41.343,-3.0695 -39.405,-1.964 -18.344,-10.468 30.278,-12.226 50.668,-21.427 81.344,-36.709 63.949,-31.858 104.86,-58.741 134.5,-88.376 34.415,-34.409 45.895,-60.414 29.668,-67.207 -5.4905,-2.2983 -19.51,-1.2881 -29.672,2.1382 -26.215,8.8387 -64.438,35.703 -104.39,73.373 -13.095,12.345 -13.322,12.506 -10.167,7.1604 18.307,-31.009 24.169,-57.836 16.413,-75.117 -4.9952,-11.131 -17.671,-20.116 -32.94,-23.351 -10.711,-2.269 -12.566,-2.0044 -20.131,2.8716 -14.758,9.5123 -25.406,13.634 -35.188,13.62 -5.5559,-0.01 -8.3243,-0.7311 -17.593,-4.597 -27.821,-11.603 -38.725,-13.805 -68.5,-13.834 -35.529,-0.034 -45.265,2.567 -86.192,23.027 -68.83,34.409 -103.34,80.941 -97.853,131.93 2.2459,20.86 9.0364,39.631 20.433,56.483 l 3.0432,4.5 -2.9658,-1.9507 c -18.415,-12.112 -28.394,-15.86 -34.944,-13.123 -2.4293,1.015 -3.6332,2.2746 -4.0692,4.2574 -0.3405,1.5487 -0.8084,3.4203 -1.0399,4.159 -0.7577,2.4184 1.6365,14.477 4.6831,23.585 1.6424,4.9107 5.5901,14.635 8.7727,21.61 l 5.7865,12.681 -9.5772,0.6261 c -22.848,1.4937 -37.499,8.6676 -43.766,21.431 -2.6029,5.3006 -2.8063,6.5753 -2.7479,17.224 0.053,9.7605 0.4835,12.786 2.8423,20 3.8646,11.82 12.178,28.132 21.34,41.871 4.2651,6.3961 8.1184,12.198 8.563,12.894 1.3132,2.0559 -5.835,-1.0218 -30.808,-13.264 -33.454,-16.4 -59.218,-32.359 -90.5,-56.059 -47.002,-35.609 -96.261,-85.613 -135.12,-137.16 -8.5005,-11.277 -31.213,-44.465 -35.44,-51.786 -0.9227,-1.598 -2.0858,-0.3974 -9,9.2894 -4.3673,6.1184 -8.2372,11.146 -8.6,11.172 -1.8696,0.1339 -24.433,-40.238 -32.388,-57.953 -20.306,-45.206 -29.456,-85.498 -29.456,-129.69 0,-57.334 17.212,-108.54 52.29,-155.58 31.031,-41.607 76.045,-76.5 122.21,-94.733 29.707,-11.733 67.173,-36.11 108.83,-70.812 36.837,-30.686 69.65,-60.805 158.17,-145.18 158.2,-150.8 247.61,-230.92 366,-327.97 67.671,-55.477 111.86,-84.511 179.5,-117.94 121.39,-59.996 261.8,-95.616 420,-106.55 79.563,-5.5001 167.36,-3.8832 244.5,4.503 41.312,4.4912 60.122,7.956 43.25,7.9668 -18.547,0.0119 -88.167,5.5007 -133.27,10.507 -201.21,22.334 -366.78,72.797 -486.48,148.28 -64.541,40.697 -116.78,90.503 -145.13,138.37 -6.6631,11.251 -11.399,20.682 -10.708,21.325 0.1835,0.17056 15.184,2.3926 33.334,4.938 18.15,2.5453 34.125,4.8483 35.5,5.1178 1.9908,0.39012 4.435,-1.0694 12,-7.1656 106.94,-86.177 222.73,-138.2 340,-152.77 24.455,-3.0369 42.889,-3.8644 73,-3.2767 16.225,0.31667 33.325,1.0534 38,1.6372 23.32,2.9122 42.206,7.0403 32.208,7.0403 -1.7557,0 -12.34,1.5554 -23.522,3.4564 -86.773,14.753 -172.94,47.988 -260.19,100.36 -44.547,26.739 -101.91,68.752 -129.49,94.837 l -6.5039,6.1516 4.9978,0.71375 c 25.584,3.6537 65.556,14.49 98.498,26.702 173.02,64.141 317.44,197.79 413.05,382.25 36.538,70.491 56.386,138.26 62.012,211.72995 1.5291,19.968 0.7009,71.326 -1.4404,89.325 -8.9522,75.248 -29.563,141.43 -66.017,211.98 -32.709,63.304 -77.94,126.37 -125.03,174.32 l -13.076,13.315 5,4.6012 c 52.878,48.66 116.4,82.244 179,94.635 27.116,5.3675 34.961,6.0771 67.5,6.106 31.858,0.028 43.196,-0.9077 68,-5.6138 24.246,-4.6004 54.021,-13.454 76.966,-22.886 12.434,-5.1111 37.4,-17.304 44.431,-21.699 3.914,-2.4467 4.0106,-2.46 2.1025,-0.2894 -8.073,9.1834 -36.792,31.247 -57.5,44.175 -113.91,71.111 -287.37,107.78 -482.2,101.94 -84.663,-2.5387 -157.52,-9.5955 -248.8,-24.097 -58.954,-9.3666 -88.798,-12.338 -140.44,-13.982 -181.73,-5.7873 -376.38,38.948 -576.56,132.51 -150.65,70.412 -316.96,178.82 -437.87,285.42 -22.073,19.46 -21.071,18.888 -16.239,9.2771 z m 144.17,-1109.8 c 8.6867,-9.0052 28.131,-21.815 41.71,-27.479 4.2547,-1.7746 12.686,-4.4461 18.735,-5.9365 l 10.999,-2.71 -4.9991,-0.6815 c -25.382,-3.4606 -36.68,-12.655 -35.228,-28.669 0.8901,-9.8172 8.6357,-24.324 20.777,-38.913 2.7641,-3.3214 4.7141,-6.0389 4.3335,-6.0389 -1.4235,0 -8.1717,5.6502 -17.239,14.434 -24.844,24.067 -38.972,49.98 -43.107,79.066 -1.2046,8.4728 -1.3401,20.5 -0.231,20.5 0.4421,0 2.3546,-1.6076 4.25,-3.5725 z m 541.74,-301.33 c 55.053,-34.201 98.117,-77.703 121.36,-122.59 6.3931,-12.348 11.392,-24.295 10.528,-25.159 -0.6775,-0.67749 -17.756,8.3268 -30.888,16.285 -61.951,37.543 -109.93,86.757 -136.95,140.47 -3.2086,6.3784 -5.8338,12.154 -5.8338,12.834 0,1.6343 25.224,-11.547 41.789,-21.838 z m 1115.7,815.71 c -38.692,-15.43 -96.756,-25.108 -140.57,-23.431 -31.782,1.2166 -64.28,6.8771 -89.255,15.546 l -5.8243,2.0217 2.8243,-3.3702 c 1.5534,-1.8537 7.876,-9.3784 14.05,-16.722 88.351,-105.08 145.89,-227.79 162.16,-345.85 4.0156,-29.134 4.6153,-38.945 4.6153,-75.5 0,-43.976 -2.0343,-66.122 -9.5991,-104.5 -13.396,-67.959 -39.233,-131.73 -83.596,-206.33 -93.568,-157.34 -226.78,-275.45 -380.8,-337.66 -9.9,-3.9984 -27.225,-10.359 -38.5,-14.134 -11.275,-3.775 -19.987,-6.8679 -19.36,-6.8722 0.627,-0.004 5.352,0.85503 10.5,1.9097 18.059,3.6997 54.553,10.091 74.36,13.024 71.868,10.64 121.63,10.216 170.19,-1.4475 11.641,-2.7966 34.415,-9.893 41.43,-12.91 1.3713,-0.58971 1.7218,0.4091 2.3196,6.6106 3.116,32.325 15.123,79.118 29.844,116.31 50.808,128.34 150.21,213.1 284.24,242.37 12.148,2.6525 43.067,8.131 45.888,8.131 0.5355,0 -3.1416,2.8125 -8.1712,6.25 -20.701,14.148 -41.902,33.244 -57.454,51.75 -22.204,26.421 -37.793,58.194 -43.422,88.5 -2.6096,14.051 -2.605,43.992 0.01,58 9.1932,49.266 38.297,98.173 88.103,148.05 7.7171,7.7283 18.531,18.018 24.031,22.867 5.5,4.849 10.12,9.1223 10.266,9.4973 0.146,0.375 -4.9993,3.5849 -11.435,7.1331 -29.864,16.466 -56.448,36.202 -80.687,59.903 -34.616,33.848 -54.193,66.603 -62.798,105.07 -3.1274,13.981 -3.3674,42.986 -0.4839,58.475 7.2754,39.079 29.369,78.563 67.008,119.75 5.9057,6.4625 10.601,11.704 10.434,11.647 -0.167,-0.057 -4.8036,-1.8976 -10.304,-4.0909 z m -1367.7,-905.1 c 9.7436,-29.782 15.718,-62.992 16.913,-94.024 l 0.6095,-15.821 3.093,5.7885 c 3.8664,7.2358 11.851,15.332 18.108,18.361 6.5016,3.1474 17.164,3.8016 25.065,1.5379 15.612,-4.4726 32.569,-17.402 51.126,-38.984 40.946,-47.619 97.754,-137.89 151.07,-240.06 5.1662,-9.9 9.0988,-17.1 8.7391,-16 -0.3596,1.1 -2.1911,8.251 -4.0699,15.891 -5.387,21.906 -6.9207,33.815 -6.9039,53.609 0.013,15.19 0.3159,18.552 2.2948,25.47 2.9876,10.444 6.4079,16.548 12.427,22.178 4.0368,3.776 4.6779,4.8218 3.578,5.837 -0.737,0.68026 -12.815,11.531 -26.84,24.112 -54.553,48.939 -158.37,146.17 -251.02,235.09 l -7.5233,7.2204 z m 383.55,-380.17 c 26.345,-42.368 48.29,-77.456 48.767,-77.973 0.4773,-0.51677 -1.7661,4.8832 -4.9854,12 -14.149,31.28 -22.22,58.265 -22.483,75.17 l -0.1432,9.2309 -69.056,58.605 z"
       fill="#FFAD21"
       id="path17" />
  </g>
</svg>
