<svg xmlns="http://www.w3.org/2000/svg" id="Layer_2" viewBox="0 0 313.02 313.02"><defs><style>.cls-1{fill:#fff;}.cls-2{fill:red;}</style></defs><g id="Layer_1-2"><circle class="cls-1" cx="158.26" cy="156.8" r="144.5"></circle><g><g><path d="m113.05,58.72l-58.44,173h29.72s15.82-49.52,15.82-49.52h53.71s16.6,49.52,16.6,49.52h31.18s-62.07-173-62.07-173h-26.53Zm31.83,96.15h-36.29s17.71-55.66,17.71-55.66l18.57,55.66Z"></path><rect x="207.61" y="58.72" width="28.04" height="173"></rect></g><path class="cls-2" d="m135.69,1.4C50.17,12.88-10.08,91.8,1.4,177.33c11.48,85.53,90.4,145.77,175.93,134.29,85.53-11.48,145.77-90.4,134.29-175.93C300.14,50.17,221.22-10.08,135.69,1.4ZM31.14,173.34c-3.9-29.09,2.46-57.24,16.29-80.78l199.53,152.31c-19.06,19.55-44.53,33.11-73.62,37.02-69.13,9.28-132.92-39.42-142.2-108.55Zm234.09,47.74L65.57,68.67c19.11-19.82,44.77-33.59,74.12-37.53,69.13-9.28,132.92,39.42,142.2,108.55,3.94,29.35-2.57,57.73-16.66,81.39Z"></path></g></g></svg>